<svg version="1" xmlns="http://www.w3.org/2000/svg" width="346.667" height="346.667" viewBox="0 0 260.000000 260.000000"><path d="M175 33c-15.8 2.8-29.9 12.8-38.6 27.6-1 1.7-1.4 1.3-3.7-3.8-7.8-17.5-29.4-26.3-52-21.2-12.5 2.8-21.8 8.4-33.2 19.8-13.9 14-19.1 23.5-24.1 43.7-5.7 23-7.2 54.5-3.5 72.6 5.9 28.3 25 44.4 54.8 46 17 .9 32.5-2.5 51.8-11.6 27.2-12.9 50.9-32.1 69.9-57 5.7-7.4 6.5-7.1 8.6 2.9 1.2 5.7 1.2 6.2-1.4 11.4-1.8 3.7-5.5 8.2-11.7 14-7.2 6.9-10.8 9.5-18.2 13-11.1 5.3-14.7 8.8-15.4 14.8-.4 3.4 0 5 1.9 7.8 9.3 13.9 34.6 6.2 58.9-18 19.3-19.1 23.7-33 17.5-54.3-3.1-10.4-7.3-19.2-12.8-26.5-2.8-3.8-3.8-6-3.5-7.5.3-1.2 1.3-4.7 2.2-7.7 3.9-13.1 2.7-32.2-2.6-43.4-5.2-11.1-17.3-20.3-29.8-22.6-6-1.1-8.6-1.1-15.1 0zm-62.7 7.7c12.1 5.7 19.2 15.1 19.2 25.5 0 4.9-.4 6.1-2.9 8.7-8.2 8.5-20.3 5.5-24.1-6-2.1-6.2-4.8-8.1-11.5-8.1-12 .1-26.4 11.8-33.8 27.4-8.7 18.1-13.4 54.2-9.7 74.7 2.7 15.5 6.2 21.3 15.3 25.8 17.8 8.7 51-2.7 80.9-27.8 7.6-6.4 20.2-20.2 28.3-30.9 1.9-2.5 5.4-6.9 7.8-9.8l4.5-5.4 6.9 6.9c9.8 9.6 10.3 10.8 7.1 16.9-11.2 21.4-44.6 50.6-73.8 64.5-18.3 8.7-31.5 12.1-47.5 12.1-17.4 0-29.9-4.4-40.5-14.3-10.9-10.3-16.2-23.9-18-46.4-.8-10.7 1-32.2 4-47.2 4.9-24.2 11.6-37.4 26.2-51.4 14.7-14.1 26.6-19.1 44.4-18.6 9.3.3 11.3.7 17.2 3.4zm74.5 23.6c1.3 1.3 2.7 3.9 3.2 5.8 1.3 4.5 1.3 14.9 0 14.9-3.4 0-19.4-9.9-20.4-12.6-.9-2.4 1.8-6 6.2-8.3 5-2.7 8.4-2.6 11 .2zm-89.5-.2c2.8 1.5 3.5 2.5 4.7 6.9 1.8 6.6 9 12 16 12 4.1 0 9.9-2.5 13.2-5.7 1.5-1.5 2.9-2.5 3.1-2.2.2.2 1.1 2.5 2.1 5.1 3.8 10.4 12.4 18 31.9 28.3 5.9 3.1 11 6.1 11.3 6.6 1.3 2.1-12.2 20.5-24 32.7-24 24.9-58.3 42.6-79.3 40.9-16.8-1.3-23.5-11.1-25-36.9-1.1-17.8 3.9-48.9 9.8-61.5 5.7-12 15.8-22.2 25.2-25.4 6.2-2.2 8.1-2.3 11-.8z"/></svg>