<?xml version="1.0" standalone="no"?>
<!DOCTYPE svg PUBLIC "-//W3C//DTD SVG 20010904//EN"
 "http://www.w3.org/TR/2001/REC-SVG-20010904/DTD/svg10.dtd">
<svg version="1.0" xmlns="http://www.w3.org/2000/svg"
 width="123.000000pt" height="123.000000pt" viewBox="0 0 123.000000 123.000000"
 preserveAspectRatio="xMidYMid meet">
<metadata>
Created by potrace 1.14, written by Peter Selinger 2001-2017
</metadata>
<g transform="translate(0.000000,123.000000) scale(0.100000,-0.100000)"
fill="#000000" stroke="none">
<path d="M0 615 l0 -615 615 0 615 0 0 615 0 615 -615 0 -615 0 0 -615z m534
192 c39 -21 67 -58 81 -104 6 -21 3 -23 -37 -23 -37 0 -47 5 -70 34 -15 18
-38 36 -52 40 -38 9 -92 -17 -112 -55 -22 -43 -22 -125 0 -167 16 -32 61 -62
91 -62 28 0 71 28 83 54 10 22 18 26 57 26 43 0 46 -1 39 -22 -27 -88 -72
-121 -171 -127 -64 -3 -78 0 -117 23 -62 36 -91 97 -91 191 0 139 71 215 199
215 44 0 72 -6 100 -23z m386 8 c37 -19 70 -62 70 -91 0 -21 -5 -24 -36 -24
-27 0 -43 7 -64 30 -19 20 -38 30 -57 30 -55 0 -94 -50 -60 -78 6 -6 48 -19
92 -31 63 -16 86 -27 109 -52 25 -28 28 -38 24 -81 -6 -54 -27 -84 -75 -104
-42 -18 -144 -18 -187 0 -40 17 -76 60 -76 92 0 21 5 24 36 24 26 0 43 -8 66
-30 34 -34 88 -41 126 -14 49 34 17 74 -76 93 -103 21 -142 56 -142 127 0 48
28 90 74 110 42 18 140 18 176 -1z"/>
</g>
</svg>
